<svg width="23" height="23" viewBox="0 0 23 23" fill="none" xmlns="http://www.w3.org/2000/svg">
<path d="M11.25 0C5.04259 0 0 5.04259 0 11.25C0 17.4574 5.04259 22.5 11.25 22.5C17.4574 22.5 22.5 17.4574 22.5 11.25C22.5 5.04259 17.4574 0 11.25 0ZM11.25 0.978261C16.9287 0.978261 21.5217 5.57128 21.5217 11.25C21.5217 16.9287 16.9287 21.5217 11.25 21.5217C5.57128 21.5217 0.978261 16.9287 0.978261 11.25C0.978261 5.57128 5.57128 0.978261 11.25 0.978261ZM10.7609 5.38043V10.7609H5.38043V11.7391H10.7609V17.1196H11.7391V11.7391H17.1196V10.7609H11.7391V5.38043H10.7609Z" fill="white"/>
</svg>
