<svg width="67" height="60" viewBox="0 0 67 60" fill="none" xmlns="http://www.w3.org/2000/svg">
<g clip-path="url(#clip0_97_284)">
<path d="M47.4091 59H35.0341V24.0909H47.5114C51.0227 24.0909 54.0455 24.7898 56.5795 26.1875C59.1136 27.5739 61.0625 29.5682 62.4261 32.1705C63.8011 34.7727 64.4886 37.8864 64.4886 41.5114C64.4886 45.1477 63.8011 48.2727 62.4261 50.8864C61.0625 53.5 59.1023 55.5057 56.5455 56.9034C54 58.3011 50.9545 59 47.4091 59ZM42.4148 52.6761H47.1023C49.2841 52.6761 51.1193 52.2898 52.608 51.517C54.108 50.733 55.233 49.5227 55.983 47.8864C56.7443 46.2386 57.125 44.1136 57.125 41.5114C57.125 38.9318 56.7443 36.8239 55.983 35.1875C55.233 33.5511 54.1136 32.3466 52.625 31.5739C51.1364 30.8011 49.3011 30.4148 47.1193 30.4148H42.4148V52.6761Z" fill="url(#paint0_linear_97_284)"/>
<path d="M3.03409 59V24.0909H16.8068C19.4432 24.0909 21.6932 24.5625 23.5568 25.5057C25.4318 26.4375 26.858 27.7614 27.8352 29.4773C28.8239 31.1818 29.3182 33.1875 29.3182 35.4943C29.3182 37.8125 28.8182 39.8068 27.8182 41.4773C26.8182 43.1364 25.3693 44.4091 23.4716 45.2955C21.5852 46.1818 19.3011 46.625 16.6193 46.625H7.39773V40.6932H15.4261C16.8352 40.6932 18.0057 40.5 18.9375 40.1136C19.8693 39.7273 20.5625 39.1477 21.017 38.375C21.483 37.6023 21.7159 36.642 21.7159 35.4943C21.7159 34.3352 21.483 33.358 21.017 32.5625C20.5625 31.767 19.8636 31.1648 18.9205 30.7557C17.9886 30.3352 16.8125 30.125 15.392 30.125H10.4148V59H3.03409ZM21.8864 43.1136L30.5625 59H22.4148L13.9261 43.1136H21.8864Z" fill="url(#paint1_linear_97_284)"/>
</g>
<defs>
<linearGradient id="paint0_linear_97_284" x1="46.6348" y1="13" x2="62.1992" y2="97.1624" gradientUnits="userSpaceOnUse">
<stop offset="0.0001" stop-color="#FF1414"/>
<stop offset="0.447156" stop-color="#7D6E6E"/>
<stop offset="0.879854" stop-color="#8F0000"/>
</linearGradient>
<linearGradient id="paint1_linear_97_284" x1="13.3804" y1="13" x2="30.2942" y2="96.6196" gradientUnits="userSpaceOnUse">
<stop/>
<stop offset="0.0001" stop-color="white"/>
<stop offset="0.244586" stop-color="#B9B9B9"/>
<stop offset="0.879854" stop-color="#030303"/>
</linearGradient>
<clipPath id="clip0_97_284">
<rect width="67" height="60" fill="white"/>
</clipPath>
</defs>
</svg>
